<?xml version="1.0" encoding="UTF-8" standalone="no"?>
<svg
   width="619.7005"
   height="330.25375"
   viewBox="0 0 163.96255 87.379869"
   version="1.1"
   id="svg1"
   xml:space="preserve"
   sodipodi:docname="cs3_ammonia_relevant energy_plain.svg"
   inkscape:version="1.3.2 (091e20e, 2023-11-25, custom)"
   xmlns:inkscape="http://www.inkscape.org/namespaces/inkscape"
   xmlns:sodipodi="http://sodipodi.sourceforge.net/DTD/sodipodi-0.dtd"
   xmlns:xlink="http://www.w3.org/1999/xlink"
   xmlns="http://www.w3.org/2000/svg"
   xmlns:svg="http://www.w3.org/2000/svg"><sodipodi:namedview
   id="namedview1"
   pagecolor="#ffffff"
   bordercolor="#000000"
   borderopacity="0.25"
   inkscape:showpageshadow="2"
   inkscape:pageopacity="0.0"
   inkscape:pagecheckerboard="0"
   inkscape:deskcolor="#d1d1d1"
   inkscape:zoom="1.0953402"
   inkscape:cx="296.25499"
   inkscape:cy="160.22419"
   inkscape:window-width="1920"
   inkscape:window-height="1017"
   inkscape:window-x="1912"
   inkscape:window-y="-8"
   inkscape:window-maximized="1"
   inkscape:current-layer="svg1" />
    <defs
   id="defs1"><style
     id="style1">
            .a{fill:#fff}.b{fill:#211715}.c{fill:#64a4d6}.d{fill:#febe69}.st1{fill:#7d828c}.st2{fill:#a4a5a6}.st0{fill:#000}
        </style></defs>
    <path
   style="fill:none;stroke:#23a2bc;stroke-width:2.58778px;stroke-linecap:butt;stroke-linejoin:miter;stroke-miterlimit:8;stroke-dasharray:none;stroke-opacity:1"
   d="M 2.8171956,46.949255 H 25.614196"
   id="path36" /><g
   id="g57"
   transform="translate(-33.622804,-94.996745)">
            <text
   xml:space="preserve"
   style="font-style:italic;font-variant:normal;font-weight:400;font-size:4.96094px;line-height:125%;font-family:Arial;text-align:end;letter-spacing:0;word-spacing:0;text-anchor:end;fill:#000000;fill-opacity:1;stroke:none;stroke-width:0.264583"
   x="55.987999"
   y="138.314"
   id="text51"><tspan
     x="55.987999"
     y="138.314"
     id="tspan51"
     style="text-align:end;text-anchor:end;stroke-width:0.264583"><tspan
       dx="0 0 0 0 0 0 0"
       dy="0 0 0 0 0 0 0"
       style="font-style:italic;font-variant:normal;font-weight:400;font-size:4.96094px;font-family:Arial;text-align:end;text-anchor:end;fill:#23a2bc;stroke-width:0.264583"
       id="tspan50">RFNBO-H</tspan></tspan></text>
            <text
   xml:space="preserve"
   style="font-style:italic;font-variant:normal;font-weight:400;font-size:3.30729px;line-height:125%;font-family:Arial;text-align:start;letter-spacing:0;word-spacing:0;text-anchor:start;fill:#000000;fill-opacity:1;stroke:none;stroke-width:0.264583"
   x="56.012001"
   y="139.49899"
   id="text53"><tspan
     x="56.012001"
     y="139.49899"
     id="tspan53"
     style="stroke-width:0.264583"><tspan
       dx="0"
       dy="0"
       style="font-style:italic;font-variant:normal;font-weight:400;font-size:3.30729px;font-family:Arial;fill:#23a2bc;stroke-width:0.264583"
       id="tspan52">2</tspan></tspan></text>
        </g><path
   style="fill:none;stroke:#23a2bc;stroke-width:1.45841px;stroke-linecap:butt;stroke-linejoin:miter;stroke-miterlimit:8;stroke-dasharray:none;stroke-opacity:1"
   d="m 41.897195,46.949255 h 31.86"
   id="path55" /><path
   style="fill:#800080;stroke:#800080;stroke-width:1.45841px;stroke-linecap:butt;stroke-linejoin:miter;stroke-miterlimit:8;stroke-dasharray:none;stroke-opacity:0.584314"
   d="m 32.424166,5.3722992 -0.0506,31.8599638"
   id="path55-0" /><text
   xml:space="preserve"
   style="font-style:italic;font-variant:normal;font-weight:400;font-size:4.96094px;line-height:125%;font-family:Arial;text-align:start;letter-spacing:0;word-spacing:0;text-anchor:start;fill:#000000;fill-opacity:1;stroke:none;stroke-width:0.264583"
   x="46.697216"
   y="43.945194"
   id="text56"><tspan
     x="46.697216"
     y="43.945194"
     id="tspan56"
     style="stroke-width:0.264583"><tspan
       style="font-style:italic;font-variant:normal;font-weight:400;font-size:4.96094px;font-family:Arial;fill:#949494;stroke-width:0.264583"
       id="tspan55">ammonia</tspan></tspan></text><text
   xml:space="preserve"
   style="font-style:italic;font-variant:normal;font-weight:400;font-size:4.96094px;line-height:125%;font-family:Arial;text-align:start;letter-spacing:0;word-spacing:0;text-anchor:start;fill:#999999;fill-opacity:1;stroke:none;stroke-width:0.264583"
   x="24.631781"
   y="61.99963"
   id="text56-9"><tspan
     x="24.631781"
     y="61.99963"
     id="tspan56-3"
     style="font-style:normal;font-variant:normal;font-weight:normal;font-stretch:normal;font-family:Arial;-inkscape-font-specification:Arial;stroke-width:0.264583;fill:#999999">Haber</tspan></text><text
   xml:space="preserve"
   style="font-style:italic;font-variant:normal;font-weight:400;font-size:4.96094px;line-height:125%;font-family:Arial;text-align:start;letter-spacing:0;word-spacing:0;text-anchor:start;fill:#999999;fill-opacity:1;stroke:none;stroke-width:0.264583"
   x="111.433"
   y="36.799202"
   id="text56-9-7"><tspan
     x="111.433"
     y="36.799202"
     id="tspan56-3-8"
     style="font-style:normal;font-variant:normal;font-weight:normal;font-stretch:normal;font-family:Arial;-inkscape-font-specification:Arial;stroke-width:0.264583;fill:#999999">Cracking</tspan></text><text
   xml:space="preserve"
   style="font-style:italic;font-variant:normal;font-weight:400;font-size:4.96094px;line-height:125%;font-family:Arial;text-align:start;letter-spacing:0;word-spacing:0;text-anchor:start;fill:#800080;fill-opacity:1;stroke:none;stroke-width:0.264583"
   x="20.748781"
   y="3.5511415"
   id="text56-0"><tspan
     x="20.748781"
     y="3.5511415"
     id="tspan56-6"
     style="fill:#800080;stroke-width:0.264583">nitrogen<tspan
   style="font-style:italic;font-variant:normal;font-weight:400;font-size:4.96094px;font-family:Arial;fill:#800080;stroke-width:0.264583"
   id="tspan55-8" /></tspan></text><path
   style="fill:none;stroke:#23a2bc;stroke-width:1.49903px;stroke-linecap:butt;stroke-linejoin:miter;stroke-miterlimit:8;stroke-dasharray:none;stroke-opacity:1"
   d="M 93.527675,46.949255 H 112.48719"
   id="path60" /><path
   style="fill:#c46a11;fill-opacity:1;fill-rule:nonzero;stroke:#c46a11;stroke-width:0.00809157px;stroke-linecap:butt;stroke-linejoin:round;stroke-miterlimit:10;stroke-dasharray:none;stroke-opacity:1"
   d="m 121.21845,65.94032 0.0531,-9.473523 h -0.55064 l -0.0531,9.473523 z m 0.83699,-9.263312 -1.04924,-1.241998 -1.06926,1.236159 z"
   id="path114" /><g
   id="g56"
   transform="translate(-33.139696,-106.70648)">
            <text
   xml:space="preserve"
   style="font-style:italic;font-variant:normal;font-weight:400;font-size:4.96094px;line-height:125%;font-family:Arial;text-align:start;letter-spacing:0;word-spacing:0;text-anchor:start;fill:#000000;fill-opacity:1;stroke:none;stroke-width:0.264583"
   x="155.745"
   y="168.121"
   id="text115"><tspan
     x="155.745"
     y="168.121"
     id="tspan115"
     style="stroke-width:0.264583"><tspan
       style="font-style:italic;font-variant:normal;font-weight:400;font-size:4.96094px;font-family:Arial;fill:#c46a11;stroke-width:0.264583"
       id="tspan114">Heat</tspan></tspan></text>
        </g><path
   style="fill:none;stroke:#ffc000;stroke-width:0.169325px;stroke-linecap:butt;stroke-linejoin:miter;stroke-miterlimit:8;stroke-dasharray:none;stroke-opacity:1"
   d="m 129.89619,50.208255 34.013,0.021"
   id="path117" /><path
   style="fill:none;stroke:#23a2bc;stroke-width:0.719629px;stroke-linecap:butt;stroke-linejoin:miter;stroke-miterlimit:8;stroke-dasharray:none;stroke-opacity:1"
   d="m 129.87519,49.848255 34.087,-0.042"
   id="path118" /><text
   xml:space="preserve"
   style="font-style:italic;font-variant:normal;font-weight:400;font-size:4.96094px;line-height:125%;font-family:Arial;text-align:start;letter-spacing:0;word-spacing:0;text-anchor:start;fill:#000000;fill-opacity:1;stroke:none;stroke-width:0.264583"
   x="137.86281"
   y="47.12241"
   id="text119"><tspan
     x="137.86281"
     y="47.12241"
     id="tspan119"
     style="stroke-width:0.264583"><tspan
       style="font-style:italic;font-variant:normal;font-weight:400;font-size:4.96094px;font-family:Arial;fill:#949494;stroke-width:0.264583"
       id="tspan118">hydrogen</tspan></tspan></text><a
   id="a11"
   xlink:href="#final-fuel-production"
   transform="translate(-68.564805,-38.266745)"><g
     id="g42"
     transform="matrix(0.69784,0,0,0.69784,181.198,76.992)">
            <path
   d="m 4,18 v 2 H 8 V 18 H 4 m 0,-4 v 2 H 14 V 14 H 4 m 6,4 v 2 h 4 v -2 h -4 m 6,-4 v 2 h 4 v -2 h -4 m 0,4 v 2 h 4 V 18 H 16 M 2,22 V 8 l 5,4 V 8 l 5,4 V 8 l 5,4 1,-10 h 3 l 1,10 v 10 z"
   id="path1-91" />
            <path
   fill="none"
   id="rect1"
   d="M 0,0 H 24 V 24 H 0 Z" />
        </g></a><a
   id="a8"
   xlink:href="#methanol-production"
   transform="translate(-68.564805,-38.266745)"><g
     id="Layer_17"
     transform="matrix(0.29313,0,0,0.29313,91.686,76.242)">
            <path
   class="st0"
   d="M 40,7 H 38 V 5 C 38,4.4 37.6,4 37,4 H 23 C 22.4,4 22,4.4 22,5 V 7 H 20 V 5 c 0,-1.7 1.3,-3 3,-3 h 14 c 1.7,0 3,1.3 3,3 z"
   id="path1-5" />
            <path
   class="st0"
   d="M 15,25 H 10 C 8.3,25 7,23.7 7,22 V 10 C 7,8.3 8.3,7 10,7 h 8 V 9 H 10 C 9.4,9 9,9.4 9,10 v 12 c 0,0.6 0.4,1 1,1 h 5 z"
   id="path2-7" />
            <path
   class="st0"
   d="m 56,47 h -2 v -7 c 0,-0.6 -0.4,-1 -1,-1 h -8 v -2 h 8 c 1.7,0 3,1.3 3,3 z"
   id="path3-3" />
            <path
   class="st0"
   d="M 14,58 V 38 C 7.4,38 2,43.4 2,50 v 8 z"
   id="path4-3" />
            <path
   class="st1"
   id="rect4"
   d="m 2,58 h 60 v 4 H 2 Z" />
            <path
   class="st0"
   id="rect5"
   d="M 42,46 H 62 V 58 H 42 Z" />
            <path
   class="st2"
   id="rect6"
   d="m 45,49 h 4 v 2 h -4 z" />
            <path
   class="st2"
   id="rect7"
   d="m 55,49 h 4 v 2 h -4 z" />
            <path
   class="st2"
   d="M 46,46 V 13 C 46,9.1 42.9,6 39,6 35.1,6 32,9.1 32,13 v 33 z"
   id="path7-1" />
            <path
   class="st2"
   d="M 28,46 V 13 C 28,9.1 24.9,6 21,6 17.1,6 14,9.1 14,13 v 33 z"
   id="path8-7" />
            <path
   class="st1"
   id="rect8"
   d="m 12,46 h 30 v 4 H 12 Z" />
            <path
   class="st0"
   id="rect9"
   d="m 12,33 h 36 v 2 H 12 Z" />
            <path
   class="st0"
   id="rect10"
   d="m 12,29 h 36 v 2 H 12 Z" />
            <path
   class="st0"
   id="rect11"
   d="m 12,17 h 36 v 2 H 12 Z" />
            <path
   class="st0"
   id="rect12"
   d="m 12,13 h 36 v 2 H 12 Z" />
            <path
   class="st2"
   id="rect13"
   d="m 32,50 h 10 v 8 H 32 Z" />
            <path
   class="st2"
   id="rect14"
   d="m 14,50 h 14 v 8 H 14 Z" />
            <path
   class="st2"
   d="M 62,46 H 58 V 28 c 0,-1.1 -0.9,-2 -2,-2 H 46 v -4 h 10 c 3.3,0 6,2.7 6,6 z"
   id="path14-3" />
        </g></a><a
   id="a9"
   xlink:href="#fuel-transport"
   transform="translate(-68.564805,-38.266745)"><g
     id="g46"
     transform="matrix(0.03256,0,0,0.03256,133.721,66.812)">
            <path
   d="m 844.627,562.68 1.84,-18.41 c 0.37,-3.72 -2.52,-6.97 -6.26,-7.05 l -20.3,-0.4 v -13.04 c 0,-2.709 -0.24,-5.368 -0.7,-7.946 h 2.704 a 6,6 0 0 0 6,-6 v -4.667 a 6,6 0 0 0 -6,-6 h -402 a 6,6 0 0 0 -6,6 v 4.667 a 6,6 0 0 0 6,6 h 2.695 c -0.46,2.579 -0.7,5.237 -0.7,7.946 v 5.16 l -10.82,-0.21 c -1.6,-0.03 -3.13,-0.65 -4.28,-1.75 l -8.57,-8.12 -30.75,-29.12 -13.52,-12.81 a 6.407,6.407 0 0 0 -4.41,-1.76 h -189.64 c -4.2,0 -7.27,3.97 -6.2,8.03 l 5.53,21.15 c 0.22,-0.02 0.44,-0.03 0.67,-0.03 h 189.64 c 1.64,0 3.22,0.63 4.41,1.76 l 3.96,3.75 40.01,37.9 8.87,8.4 a 6.405,6.405 0 0 0 4.28,1.75 l 10.82,0.21 89.99,1.78 12.69,0.26 89.88,1.77 12.94,0.26 88.92,1.76 14.7,0.29 85.76,1.7 23.42,0.46 h 0.04 c 2.23,0.06 4.16,-1.48 4.381,-3.69 z m -320.041,-38.9 v 7.2 l -12.69,-0.26 v -6.94 c 0,-2.709 -0.24,-5.368 -0.699,-7.946 h 14.089 c -0.46,2.578 -0.7,5.237 -0.7,7.946 z m 102.67,0 v 9.23 l -12.69,-0.25 v -8.98 c 0,-2.709 -0.24,-5.368 -0.7,-7.946 h 14.089 a 45.334,45.334 0 0 0 -0.699,7.946 z m 102.67,0 v 11.26 l -12.69,-0.25 v -11.01 c 0,-2.709 -0.24,-5.368 -0.699,-7.946 h 14.089 c -0.46,2.578 -0.7,5.237 -0.7,7.946 z"
   style="fill:#231f20"
   id="path1-7" />
            <path
   d="m 395.106,568.47 -15.45,-14.64 -34.32,-32.51 h -182.43 l 19.97,92.39 c 0.74,3.41 3.29,5.79 6.2,5.79 h 646.08 c 3.3,0 6.06,-3.02 6.38,-6.99 l 1.436,-17.47 c 0.316,-3.838 0.474,-7.688 0.474,-11.54 l -432.7,-8.62 a 23.373,23.373 0 0 1 -15.64,-6.41 z"
   style="fill:#231f20"
   id="path2-4" />
            <path
   d="m 214.906,441.5 h -11.34 c -3.31,0 -6,3.05 -6,6.83 v 9.84 h 23.34 v -9.84 c 0,-3.78 -2.69,-6.83 -6,-6.83 z"
   style="fill:#231f20"
   id="path3-22" />
            <path
   d="m 249.736,380.5 h -13 a 5.17,5.17 0 0 0 -5.17,5.17 v 72.5 h 23.34 v -72.5 a 5.17,5.17 0 0 0 -5.17,-5.17 z"
   style="fill:#231f20"
   id="path4-77" />
            <path
   d="m 359.156,380.5 h -54.5 c -4.61,0 -8.34,3.73 -8.34,8.33 v 35.67 h -22.41 c -4.61,0 -8.34,3.73 -8.34,8.33 v 25.34 h 83.99 c 6.03,0 11.75,2.29 16.12,6.43 l 1.81,1.72 11.69,11.08 19.06,18.05 v -62.62 c 0,-4.6 -3.73,-8.33 -8.33,-8.33 h -22.42 v -35.67 c 0,-4.6 -3.73,-8.33 -8.33,-8.33 z"
   style="fill:#231f20"
   id="path5-9" />
            <path
   d="m 440.806,487.12 h 52.2 a 44.726,44.726 0 0 0 -17.77,-7.57 v -21.383 h 86.01 v 21.383 a 44.952,44.952 0 0 0 -17.77,7.57 h 52.2 a 44.952,44.952 0 0 0 -17.77,-7.57 v -21.383 h 86.01 v 21.383 a 44.726,44.726 0 0 0 -17.77,7.57 h 52.2 a 44.726,44.726 0 0 0 -17.77,-7.57 v -21.383 h 86.01 v 21.383 a 44.952,44.952 0 0 0 -17.77,7.57 h 52.2 a 44.952,44.952 0 0 0 -17.77,-7.57 v -26.469 c 0,-0.014 0.004,-0.026 0.004,-0.041 v -6.414 a 5.109,5.109 0 0 0 -1.503,-3.626 5.097,5.097 0 0 0 -3.621,-1.5 h -314.43 a 5.12,5.12 0 0 0 -5.12,5.13 v 3.108 c 0,0.032 -0.005,0.064 -0.005,0.096 0,0.032 0.005,0.063 0.005,0.095 v 29.621 a 44.665,44.665 0 0 0 -17.77,7.57 z"
   style="fill:#231f20"
   id="path6-8" />
        </g></a><a
   id="a10"
   xlink:href="#use-of-waste-heat"
   transform="translate(-69.289467,-46.962696)"><path
     fill="#000"
     d="m 192.412,111.73 c -15.801,6.177 2.193,7.498 -3.259,15.429 12.265,-7.91 -6.873,-7.591 3.259,-15.43 z m 0.41,1.056 c -6.956,4.477 5.144,6.678 1.161,11.742 7.24,-5.084 -4.587,-6.69 -1.162,-11.742 z m -7.473,1.745 c -6.578,4.4 3.938,7.03 2.305,11.958 3.963,-5.979 -6.01,-6.547 -2.305,-11.958 z"
     id="path1-36"
     style="fill:#c46a11;fill-opacity:1;stroke-width:0.0350727" /></a>
<text
   xml:space="preserve"
   style="font-style:normal;font-variant:normal;font-weight:400;font-size:5.6224px;line-height:125%;font-family:Arial;text-align:start;letter-spacing:0;word-spacing:0;text-anchor:start;fill:#000000;fill-opacity:1;stroke:none;stroke-width:0.264583"
   x="71.169861"
   y="86.19664"
   id="text26"><tspan
     x="71.169861"
     y="86.19664"
     id="tspan26"
     style="stroke-width:0.264583"><tspan
       dx="0"
       dy="0"
       style="font-style:normal;font-variant:normal;font-weight:400;font-size:5.6224px;font-family:Arial;fill:#ffc000;stroke-width:0.264583"
       id="tspan25">Grid electricity</tspan></tspan></text><path
   style="fill:none;stroke:#ffc000;stroke-width:0.793752;stroke-linecap:butt;stroke-linejoin:miter;stroke-miterlimit:8;stroke-dasharray:none;stroke-opacity:1"
   d="M 97.747865,70.982648 H 110.92386"
   id="path28"
   sodipodi:nodetypes="cc" /><a
   id="a3"
   xlink:href="#grid-electricity"
   transform="translate(71.468865,-28.350352)"><g
     id="g43"
     transform="matrix(0.27251,0,0,0.27251,7.068,89.602)"><g
       id="color"><path
         fill="#ffffff"
         d="m 22.87,30.126 c -0.01,0 -0.02,-0.02 -0.02,-0.02 a 4.397,4.397 0 0 1 -0.52,-0.36 c -0.01,-0.01 -0.02,-0.01 -0.03,-0.02 a 6.098,6.098 0 0 1 -1.83,-2.6 5.998,5.998 0 0 1 3.16,-7.51 3.977,3.977 0 0 1 6.76,-2.13 5.015,5.015 0 0 1 2.72,-2.41 4.924,4.924 0 0 1 3.28,-0.02 4.975,4.975 0 0 1 7.3,-5.21 7.943,7.943 0 0 1 2.83,-1.77 7.846,7.846 0 0 1 2.67,-0.48 5.88,5.88 0 0 1 2.03,-1.23 6.003,6.003 0 0 1 7.69,3.58 c 0.06,0.17 0.11,0.34 0.16,0.52 a 3.529,3.529 0 0 1 0.56,0.14 3.948,3.948 0 0 1 2.53,2.42 4.002,4.002 0 0 1 -2.39,5.12 3.942,3.942 0 0 1 -2.91,-0.08 7.982,7.982 0 0 1 -9.79,5.21 4.96,4.96 0 0 1 -8.71,2.36 4.942,4.942 0 0 1 -6.82,1.99 5.914,5.914 0 0 1 -2.06,2.41"
         id="path1-1" /><path
         fill="#ffffff"
         d="m 22.87,30.126 c -0.01,0 -0.02,-0.02 -0.02,-0.02 a 4.397,4.397 0 0 1 -0.52,-0.36 c -0.01,-0.01 -0.02,-0.01 -0.03,-0.02 a 6.098,6.098 0 0 1 -1.83,-2.6 5.998,5.998 0 0 1 3.16,-7.51 3.977,3.977 0 0 1 6.76,-2.13 5.015,5.015 0 0 1 2.72,-2.41 4.924,4.924 0 0 1 3.28,-0.02 4.975,4.975 0 0 1 7.3,-5.21 7.943,7.943 0 0 1 2.83,-1.77 7.846,7.846 0 0 1 2.67,-0.48 5.88,5.88 0 0 1 2.03,-1.23 6.003,6.003 0 0 1 7.69,3.58 c 0.06,0.17 0.11,0.34 0.16,0.52 a 3.529,3.529 0 0 1 0.56,0.14 3.948,3.948 0 0 1 2.53,2.42 4.002,4.002 0 0 1 -2.39,5.12 3.942,3.942 0 0 1 -2.91,-0.08 7.982,7.982 0 0 1 -9.79,5.21 4.96,4.96 0 0 1 -8.71,2.36 4.942,4.942 0 0 1 -6.82,1.99 5.914,5.914 0 0 1 -2.06,2.41"
         id="path2-77" /><path
         fill="#9b9b9a"
         d="m 70.24,10.506 a 0.847,0.847 0 0 0 -0.17,-0.04 c -0.01,-0.05 -0.03,-0.1 -0.04,-0.14 a 1.68,1.68 0 0 1 0.21,0.18 z"
         id="path3-2" /><path
         fill="#ffffff"
         id="rect3"
         d="m 51,27 h 6 v 39 h -6 z" /><path
         fill="#9b9b9a"
         d="m 47,47.262 a 7.946,7.946 0 0 0 -8.187,2.667 C 37.702,42.633 37.643,34.798 39.197,30 H 33 v 36 h 14 z"
         id="path4-9" /><path
         fill="#d0cfce"
         d="M 33,66 V 30 H 16 c 3,9.257 0,29.829 -5,36 z"
         id="path5-28" /><path
         fill="#3f3f3f"
         d="M 47,47.262 V 66 h 6 V 55 a 7.996,7.996 0 0 0 -6,-7.738 z"
         id="path6-0" /><path
         fill="#ea5a47"
         id="rect6-5"
         d="m 51,31 h 6 v 4 h -6 z" /></g><g
       id="line"><path
         fill="none"
         stroke="#000000"
         stroke-linecap="round"
         stroke-linejoin="round"
         stroke-width="2"
         d="m 22.87,30 c -0.01,0 -0.02,-0.02 -0.02,-0.02 A 4.397,4.397 0 0 1 22.33,29.62 C 22.32,29.61 22.31,29.61 22.3,29.6 a 6.098,6.098 0 0 1 -1.83,-2.6 5.998,5.998 0 0 1 3.16,-7.51 3.977,3.977 0 0 1 6.76,-2.13 5.015,5.015 0 0 1 2.72,-2.41 4.924,4.924 0 0 1 3.28,-0.02 4.975,4.975 0 0 1 7.3,-5.21 7.943,7.943 0 0 1 2.83,-1.77 7.846,7.846 0 0 1 2.67,-0.48 5.88,5.88 0 0 1 2.03,-1.23 6.003,6.003 0 0 1 7.69,3.58 c 0.06,0.17 0.11,0.34 0.16,0.52 a 3.529,3.529 0 0 1 0.56,0.14 3.948,3.948 0 0 1 2.53,2.42 4.002,4.002 0 0 1 -2.39,5.12 3.942,3.942 0 0 1 -2.91,-0.08 7.982,7.982 0 0 1 -9.79,5.21 4.96,4.96 0 0 1 -8.71,2.36 4.942,4.942 0 0 1 -6.82,1.99 5.914,5.914 0 0 1 -2.06,2.41"
         id="path7-2" /><path
         fill="none"
         stroke="#000000"
         stroke-linecap="round"
         stroke-linejoin="round"
         stroke-width="2"
         d="m 44.197,66 c -5,-6.171 -8,-26.743 -5,-36 H 16 c 3,9.257 0,29.829 -5,36 z"
         id="path8-2" /><path
         fill="none"
         stroke="#000000"
         stroke-linecap="round"
         stroke-linejoin="round"
         stroke-width="2"
         id="polyline8"
         d="m 53,66 h 4 V 27 h -6 v 22.721" /><path
         fill="none"
         stroke="#000000"
         stroke-linecap="round"
         stroke-linejoin="round"
         stroke-width="2"
         d="M 44.197,66 H 53 V 55 A 8,8 0 0 0 38.813,49.93"
         id="path9-8" /></g></g></a></svg>
